# xmcd CD database file
#
# Track frame offsets:
#	150
#	19471
#	40204
#	48506
#	66009
#	83231
#	104106
#	120390
#	137871
#	156187
#	173187
#	192017
#	207329
#	223747
#	239405
#
# Disc length: 3343 seconds
#
# Revision: 1
# Processed by: cddbd v1.5.2PL0 Copyright (c) Steve Scherf et al.
# Submitted via: CDex 1.70beta2
#
DISCID=de0d0d0f
DTITLE=Wolfgang Kalb - Got Them Old Walkin´ Blues
DYEAR=2010
DGENRE=Blues
TTITLE0=Walkin´ Blues
TTITLE1=Driftin´ Blues
TTITLE2=Ain´t You Sorry
TTITLE3=St. James Infirmary
TTITLE4=Seminole Blues
TTITLE5=Death Don´t Have No Mercy
TTITLE6=Ain´t  No Tellin´
TTITLE7=Little Red Rooster
TTITLE8=Hesitation Blues
TTITLE9=Sail On
TTITLE10=Weepin´ Willow
TTITLE11=I Heard The Angels Singing
TTITLE12=Kindhearted Woman
TTITLE13=Early Moning Blues
TTITLE14=Stackerlee
EXTD=YEAR: 2010
EXTT0=
EXTT1=
EXTT2=
EXTT3=
EXTT4=
EXTT5=
EXTT6=
EXTT7=
EXTT8=
EXTT9=
EXTT10=
EXTT11=
EXTT12=
EXTT13=
EXTT14=
PLAYORDER=
